<svg data-v-423bf9ae="" xmlns="http://www.w3.org/2000/svg" viewBox="0 0 756.860697538554 60" class="font"><!----><!----><!----><g data-v-423bf9ae="" id="6e716a54-492f-4295-b9bd-2fad217df2a8" fill="white" transform="matrix(4.768527543583653,0,0,4.768527543583653,-2.0027696827027626,-1.3828739840304287)"><path d="M2.04 3.56C2.04 2.79 2.60 2.37 3.51 2.37C4.23 2.37 5.17 2.62 6.23 3.16C6.78 3.44 6.69 1.93 6.20 1.69C5.35 1.25 4.41 1.02 3.53 1.02C1.85 1.02 0.42 1.88 0.42 3.68C0.42 5.52 1.90 5.82 3.21 6.10C4.26 6.31 5.19 6.51 5.19 7.43C5.19 8.20 4.56 8.64 3.57 8.64C2.84 8.64 1.90 8.40 0.88 7.88C0.31 7.59 0.39 9.14 0.91 9.38C1.78 9.81 2.74 10.05 3.64 10.05C5.38 10.05 6.85 9.20 6.85 7.41C6.85 5.39 5.32 5.08 3.99 4.83C2.95 4.63 2.04 4.47 2.04 3.56ZM15.01 8.57C14.88 8.62 14.77 8.64 14.67 8.64C14.39 8.64 14.28 8.44 14.28 8.05L14.28 7.50L14.28 5.73C14.28 4.26 13.41 3.37 12.01 3.37C11.09 3.37 10.25 3.68 9.59 4.33L9.59 0.63C9.59-0.03 7.94 0.66 7.94 1.32L7.94 9.63C7.94 10.19 9.59 10.19 9.59 9.63L9.59 5.75C10.18 5.07 10.79 4.82 11.34 4.82C12.18 4.82 12.63 5.26 12.63 6.30L12.63 7.20L12.63 8.29C12.63 9.65 13.20 10.11 13.93 10.11C14.28 10.11 14.63 10.01 15.01 9.87C15.61 9.62 15.58 8.29 15.01 8.57ZM19.42 10.05C21.50 10.05 22.72 8.82 22.72 6.72C22.72 4.61 21.50 3.36 19.42 3.36C17.33 3.36 16.11 4.61 16.11 6.72C16.11 8.82 17.33 10.05 19.42 10.05ZM19.42 8.82C18.37 8.82 17.75 8.06 17.75 6.72C17.75 5.35 18.37 4.59 19.42 4.59C20.47 4.59 21.08 5.35 21.08 6.72C21.08 8.06 20.47 8.82 19.42 8.82ZM27.64 3.37C26.73 3.37 25.91 3.70 25.34 4.23L25.13 3.67C25.00 3.28 23.76 3.25 23.76 3.78L23.76 12.46C23.76 13.01 25.41 13.01 25.41 12.46L25.41 9.30C25.98 9.77 26.77 10.04 27.64 10.04C29.13 10.04 30.13 8.74 30.13 6.73C30.13 4.72 29.13 3.37 27.64 3.37ZM26.92 8.61C26.38 8.60 25.86 8.37 25.41 7.95L25.41 5.50C25.84 5.05 26.38 4.82 26.92 4.80C27.94 4.80 28.48 5.46 28.48 6.72C28.48 7.95 27.94 8.61 26.92 8.61ZM32.28 2.31C32.84 2.31 33.24 1.92 33.24 1.29C33.24 0.70 32.84 0.29 32.28 0.29C31.70 0.29 31.32 0.70 31.32 1.29C31.32 1.92 31.70 2.31 32.28 2.31ZM33.43 8.51C33.39 8.53 33.35 8.54 33.31 8.54C33.17 8.54 33.10 8.43 33.10 8.25L33.10 3.56C33.10 2.90 31.44 3.58 31.44 4.26L31.44 8.65C31.44 9.63 31.92 10.04 32.55 10.04C32.83 10.04 33.14 9.97 33.43 9.83C34.02 9.53 34.02 8.26 33.43 8.51ZM39.58 0.94C39.02 0.60 38.46 0.45 37.93 0.45C36.65 0.45 35.62 1.29 35.62 3.09L35.62 3.68L34.76 3.68C34.20 3.68 34.20 5.12 34.76 5.12L35.62 5.12L35.62 9.63C35.62 10.19 37.27 10.19 37.27 9.63L37.27 5.12L38.30 5.12C38.96 5.12 39.68 3.68 39.02 3.68L37.27 3.68L37.27 3.14C37.27 2.25 37.58 1.81 38.16 1.81C38.53 1.81 39.00 1.96 39.58 2.30C40.04 2.56 40.07 1.22 39.58 0.94ZM45.54 3.82C45.02 5.26 44.41 6.72 43.72 8.11C42.81 6.59 42.22 5.38 41.73 3.84C41.52 3.21 39.77 3.22 40.00 3.84C40.70 5.81 41.65 7.64 42.95 9.60C42.80 9.90 42.64 10.18 42.49 10.46C42.10 11.14 41.75 11.42 41.36 11.42C41.17 11.42 40.98 11.37 40.77 11.24C40.19 10.92 40.07 12.26 40.56 12.53C40.92 12.71 41.29 12.81 41.65 12.81C42.38 12.81 43.09 12.40 43.72 11.33C45.19 8.82 46.38 6.34 47.26 3.82C47.47 3.23 45.74 3.22 45.54 3.82ZM51.37 5.56C51.37 8.61 53.05 10.05 55.43 10.05C56.53 10.05 57.48 9.72 57.89 9.42C58.31 9.14 58.28 7.78 57.78 8.08C57.36 8.32 56.45 8.61 55.64 8.61C54.26 8.61 53.09 7.70 53.09 5.56C53.09 3.39 54.26 2.48 55.64 2.48C56.45 2.48 57.36 2.77 57.78 3.02C58.28 3.32 58.31 1.97 57.89 1.68C57.48 1.37 56.53 1.04 55.43 1.04C53.05 1.04 51.37 2.48 51.37 5.56ZM62.26 10.05C64.34 10.05 65.56 8.82 65.56 6.72C65.56 4.61 64.34 3.36 62.26 3.36C60.17 3.36 58.95 4.61 58.95 6.72C58.95 8.82 60.17 10.05 62.26 10.05ZM62.26 8.82C61.21 8.82 60.59 8.06 60.59 6.72C60.59 5.35 61.21 4.59 62.26 4.59C63.31 4.59 63.92 5.35 63.92 6.72C63.92 8.06 63.31 8.82 62.26 8.82ZM77.52 8.57C77.39 8.62 77.29 8.64 77.20 8.64C76.92 8.64 76.78 8.44 76.78 8.04L76.78 7.63L76.78 5.73C76.78 4.26 75.96 3.37 74.63 3.37C73.74 3.37 72.91 3.75 72.30 4.52C71.96 3.79 71.30 3.37 70.39 3.37C69.57 3.37 68.81 3.70 68.21 4.34L67.98 3.67C67.84 3.28 66.61 3.23 66.61 3.77L66.61 9.63C66.61 10.19 68.25 10.19 68.25 9.63L68.25 5.73C68.75 5.07 69.26 4.82 69.71 4.82C70.49 4.82 70.88 5.28 70.88 6.30L70.88 9.63C70.88 10.19 72.52 10.19 72.52 9.63L72.52 5.73L72.52 5.70C73.01 5.05 73.50 4.82 73.95 4.82C74.72 4.82 75.14 5.28 75.14 6.30L75.14 7.20L75.14 8.29C75.14 9.66 75.71 10.11 76.44 10.11C76.78 10.11 77.14 10.01 77.52 9.87C78.11 9.62 78.08 8.29 77.52 8.57ZM82.59 3.37C81.68 3.37 80.86 3.70 80.29 4.23L80.08 3.67C79.95 3.28 78.71 3.25 78.71 3.78L78.71 12.46C78.71 13.01 80.36 13.01 80.36 12.46L80.36 9.30C80.93 9.77 81.72 10.04 82.59 10.04C84.08 10.04 85.08 8.74 85.08 6.73C85.08 4.72 84.08 3.37 82.59 3.37ZM81.87 8.61C81.33 8.60 80.81 8.37 80.36 7.95L80.36 5.50C80.79 5.05 81.33 4.82 81.87 4.80C82.89 4.80 83.43 5.46 83.43 6.72C83.43 7.95 82.89 8.61 81.87 8.61ZM93.27 8.48C93.14 8.54 93.04 8.57 92.95 8.57C92.67 8.57 92.53 8.37 92.53 7.97L92.53 3.78C92.53 3.22 90.89 3.22 90.89 3.78L90.89 7.64C90.29 8.34 89.68 8.61 89.12 8.61C88.28 8.61 87.82 8.15 87.82 7.13L87.82 3.54C87.82 2.88 86.20 3.58 86.20 4.24L86.20 7.70C86.20 9.16 87.05 10.04 88.45 10.04C89.40 10.04 90.29 9.70 90.97 9.00C91.15 9.76 91.62 10.04 92.18 10.04C92.53 10.04 92.89 9.94 93.27 9.80C93.86 9.53 93.83 8.22 93.27 8.48ZM98.73 8.26C97.41 9.02 96.63 8.76 96.63 7.45L96.63 5.12L98.83 5.12C99.39 5.12 99.39 3.68 98.83 3.68L96.63 3.68L96.63 2.03C96.63 1.50 95.33 1.50 95.26 1.90L94.98 3.68L94.12 3.68C93.56 3.68 93.56 5.12 94.12 5.12L94.98 5.12L94.98 7.39C94.98 9.95 96.94 10.58 98.73 9.59C99.20 9.30 99.19 8.01 98.73 8.26ZM106.22 6.23C106.22 4.38 105.20 3.37 103.15 3.37C101.02 3.37 99.92 4.66 99.92 6.66C99.92 9.04 101.64 10.04 103.36 10.04C104.15 10.04 104.89 9.83 105.53 9.42C105.92 9.17 105.92 8.02 105.41 8.25C104.69 8.57 104.08 8.75 103.49 8.75C102.51 8.75 101.60 8.27 101.57 7.28C101.95 7.34 102.37 7.36 102.75 7.36C104.51 7.36 106.22 6.89 106.22 6.23ZM101.60 6.10C101.61 5.03 102.33 4.62 103.22 4.62C104.20 4.62 104.72 5.08 104.72 5.77C104.72 5.98 103.81 6.16 102.65 6.16C102.31 6.16 101.96 6.15 101.60 6.10ZM111.26 3.43C110.17 3.46 109.35 3.88 108.82 4.54L108.61 3.68C108.51 3.29 107.18 3.28 107.18 3.81L107.18 9.63C107.18 10.19 108.84 10.19 108.84 9.63L108.84 5.94C109.48 5.25 110.14 5.04 110.95 5.00C111.44 4.98 111.78 3.42 111.26 3.43ZM115.40 1.50C116.51 4.69 118.23 9.07 118.96 9.84C119.25 10.12 119.73 10.12 120.04 9.84C120.75 9.07 122.49 4.69 123.59 1.50C123.82 0.88 121.98 0.91 121.81 1.50C121.13 3.63 120.37 5.50 119.49 7.53C118.62 5.50 117.87 3.63 117.18 1.50C117.01 0.91 115.18 0.88 115.40 1.50ZM125.29 2.31C125.85 2.31 126.24 1.92 126.24 1.29C126.24 0.70 125.85 0.29 125.29 0.29C124.70 0.29 124.32 0.70 124.32 1.29C124.32 1.92 124.70 2.31 125.29 2.31ZM126.43 8.51C126.39 8.53 126.35 8.54 126.31 8.54C126.17 8.54 126.10 8.43 126.10 8.25L126.10 3.56C126.10 2.90 124.45 3.58 124.45 4.26L124.45 8.65C124.45 9.63 124.92 10.04 125.55 10.04C125.83 10.04 126.14 9.97 126.43 9.83C127.02 9.53 127.02 8.26 126.43 8.51ZM131.17 8.48C130.90 8.57 130.68 8.62 130.51 8.62C130.13 8.62 129.98 8.36 129.98 7.76L129.98 0.71C129.98 0.04 128.34 0.74 128.34 1.41L128.34 8.15C128.34 9.56 129.02 10.05 129.89 10.05C130.30 10.05 130.73 9.94 131.17 9.79C131.77 9.52 131.75 8.26 131.17 8.48ZM135.84 8.48C135.58 8.57 135.35 8.62 135.18 8.62C134.81 8.62 134.65 8.36 134.65 7.76L134.65 0.71C134.65 0.04 133.01 0.74 133.01 1.41L133.01 8.15C133.01 9.56 133.70 10.05 134.57 10.05C134.97 10.05 135.41 9.94 135.84 9.79C136.44 9.52 136.43 8.26 135.84 8.48ZM143.95 8.48C143.84 8.53 143.74 8.54 143.64 8.54C143.37 8.54 143.23 8.33 143.23 7.76L143.23 6.03C143.23 4.05 142.14 3.37 140.43 3.37C139.02 3.37 138.19 3.65 137.61 4.14C137.14 4.51 137.24 5.56 137.72 5.26C138.29 4.93 139.06 4.69 139.93 4.69C141.11 4.69 141.60 5.08 141.60 6.24L141.60 6.31C141.16 6.09 140.52 5.95 139.62 5.95C138.12 5.95 137.16 6.76 137.16 8.01C137.16 9.25 138.07 10.05 139.47 10.05C140.55 10.05 141.30 9.66 141.76 9.24C141.99 9.81 142.41 10.02 142.90 10.02C143.23 10.02 143.60 9.93 143.95 9.79C144.55 9.53 144.55 8.26 143.95 8.48ZM139.92 8.75C139.10 8.75 138.81 8.37 138.81 7.97C138.81 7.55 139.13 7.15 140.00 7.15C140.81 7.15 141.34 7.29 141.60 7.48L141.60 8.04C141.34 8.34 140.78 8.75 139.92 8.75ZM152.32 2.79C151.48 2.80 150.91 3.23 150.51 3.78C150.01 3.51 149.32 3.36 148.50 3.36C146.58 3.36 145.45 4.17 145.45 5.54C145.45 6.29 145.78 6.86 146.41 7.24C145.84 7.48 145.46 7.91 145.46 8.55C145.46 9.02 145.67 9.31 145.99 9.51C145.66 9.81 145.46 10.22 145.46 10.74C145.46 11.91 146.41 12.87 148.67 12.87C150.67 12.87 151.73 11.90 151.73 10.46C151.73 8.78 149.70 8.71 148.27 8.65C147.62 8.64 147.11 8.55 147.11 8.12C147.11 7.88 147.28 7.73 147.53 7.62C147.83 7.67 148.15 7.70 148.50 7.70C150.44 7.70 151.55 6.90 151.55 5.54C151.55 5.12 151.45 4.76 151.24 4.45C151.49 4.31 151.75 4.26 152.07 4.24C152.57 4.24 152.82 2.77 152.32 2.79ZM148.50 6.51C147.62 6.51 147.10 6.16 147.10 5.54C147.10 4.90 147.62 4.55 148.50 4.55C149.39 4.55 149.91 4.90 149.91 5.54C149.91 6.16 149.39 6.51 148.50 6.51ZM147.46 9.86C147.57 9.86 147.91 9.87 148.15 9.88C149.16 9.91 150.09 9.91 150.09 10.64C150.09 11.27 149.53 11.68 148.67 11.68C147.71 11.68 147.11 11.27 147.11 10.63C147.11 10.26 147.24 10.01 147.46 9.86ZM159.14 6.23C159.14 4.38 158.12 3.37 156.07 3.37C153.94 3.37 152.84 4.66 152.84 6.66C152.84 9.04 154.56 10.04 156.28 10.04C157.07 10.04 157.81 9.83 158.45 9.42C158.84 9.17 158.84 8.02 158.33 8.25C157.61 8.57 157.00 8.75 156.41 8.75C155.43 8.75 154.52 8.27 154.49 7.28C154.87 7.34 155.29 7.36 155.67 7.36C157.43 7.36 159.14 6.89 159.14 6.23ZM154.52 6.10C154.53 5.03 155.25 4.62 156.14 4.62C157.12 4.62 157.64 5.08 157.64 5.77C157.64 5.98 156.73 6.16 155.57 6.16C155.23 6.16 154.88 6.15 154.52 6.10Z"></path></g><!----><!----></svg>