<svg xmlns="http://www.w3.org/2000/svg" xmlns:xlink="http://www.w3.org/1999/xlink" width="500" zoomAndPan="magnify" viewBox="0 0 375 374.999991" height="500" preserveAspectRatio="xMidYMid meet" version="1.0"><defs><g/><clipPath id="05d9df3a98"><path d="M 145.960938 110.25 L 229.210938 110.25 L 229.210938 205.5 L 145.960938 205.5 Z M 145.960938 110.25 " clip-rule="nonzero"/></clipPath></defs><g clip-path="url(#05d9df3a98)"><path fill="#000000" d="M 228.214844 133.441406 L 188.59375 110.695312 C 188.59375 110.695312 188.589844 110.695312 188.589844 110.691406 C 187.972656 110.34375 187.207031 110.34375 186.585938 110.695312 L 146.96875 133.441406 C 146.347656 133.796875 145.960938 134.460938 145.960938 135.171875 L 145.960938 180.664062 C 145.960938 181.375 146.347656 182.039062 146.964844 182.390625 L 186.59375 205.144531 C 186.898438 205.316406 187.242188 205.40625 187.589844 205.40625 C 187.9375 205.40625 188.28125 205.316406 188.59375 205.136719 L 228.214844 182.394531 C 228.835938 182.039062 229.21875 181.375 229.21875 180.664062 L 229.21875 135.171875 C 229.21875 134.460938 228.835938 133.796875 228.214844 133.441406 Z M 225.203125 161.480469 L 225.203125 179.511719 L 187.589844 201.105469 L 173.335938 192.921875 Z M 151.984375 180.664062 L 225.203125 138.636719 L 225.203125 156.804688 L 169.375 190.648438 Z M 187.582031 138.386719 L 167.667969 126.167969 L 187.589844 114.730469 L 207.503906 126.164062 Z M 187.53125 155.652344 L 151.964844 135.183594 L 163.71875 128.433594 L 186.527344 142.429688 C 187.164062 142.820312 188.015625 142.816406 188.636719 142.429688 L 211.453125 128.429688 L 223.203125 135.175781 Z M 149.976562 153.042969 L 149.976562 138.648438 L 183.515625 157.953125 L 171.035156 165.117188 Z M 167.015625 167.425781 L 149.976562 177.207031 L 149.976562 157.652344 Z M 167.015625 167.425781 " fill-opacity="1" fill-rule="nonzero"/></g><g fill="#545454" fill-opacity="1"><g transform="translate(143.575813, 219.49188)"><g><path d="M 0.644531 -3.613281 C 0.726562 -1.617188 1.960938 0.28125 5.574219 0.28125 C 9.003906 0.28125 10.339844 -1.121094 10.339844 -3.28125 C 10.339844 -5.195312 9.21875 -6.25 6.992188 -6.496094 L 4.699219 -6.777344 C 3.792969 -6.878906 3.414062 -7.355469 3.414062 -8 C 3.414062 -8.855469 4.125 -9.402344 5.460938 -9.402344 C 6.910156 -9.402344 7.636719 -8.742188 7.769531 -7.71875 L 10.226562 -7.71875 C 10.09375 -9.664062 8.742188 -11.246094 5.460938 -11.246094 C 2.375 -11.246094 0.890625 -9.828125 0.890625 -7.851562 C 0.890625 -6.035156 1.980469 -4.964844 3.925781 -4.734375 L 6.351562 -4.421875 C 7.324219 -4.289062 7.816406 -3.859375 7.816406 -3.035156 C 7.816406 -2.160156 7.273438 -1.582031 5.609375 -1.582031 C 3.875 -1.582031 3.148438 -2.441406 3.085938 -3.613281 Z M 0.644531 -3.613281 "/></g></g></g><g fill="#545454" fill-opacity="1"><g transform="translate(154.589961, 219.49188)"><g><path d="M 6.367188 -8.511719 C 4.867188 -8.511719 3.925781 -7.75 3.398438 -6.628906 L 3.398438 -11.542969 L 0.957031 -11.542969 L 0.957031 0 L 3.398438 0 L 3.398438 -3.742188 C 3.398438 -5.707031 4.125 -6.53125 5.425781 -6.53125 C 6.433594 -6.53125 6.992188 -6.003906 6.992188 -4.683594 L 6.992188 0 L 9.433594 0 L 9.433594 -5.0625 C 9.433594 -7.222656 8.527344 -8.511719 6.367188 -8.511719 Z M 6.367188 -8.511719 "/></g></g></g><g fill="#545454" fill-opacity="1"><g transform="translate(164.862143, 219.49188)"><g><path d="M 5.179688 0.265625 C 8.476562 0.265625 9.746094 -1.847656 9.746094 -4.140625 C 9.746094 -6.398438 8.476562 -8.511719 5.179688 -8.511719 C 1.898438 -8.511719 0.609375 -6.414062 0.609375 -4.140625 C 0.609375 -1.832031 1.898438 0.265625 5.179688 0.265625 Z M 3.066406 -4.125 C 3.066406 -5.953125 3.695312 -6.597656 5.179688 -6.597656 C 6.679688 -6.597656 7.304688 -5.953125 7.304688 -4.125 C 7.304688 -2.292969 6.679688 -1.648438 5.179688 -1.648438 C 3.695312 -1.648438 3.066406 -2.292969 3.066406 -4.125 Z M 3.066406 -4.125 "/></g></g></g><g fill="#545454" fill-opacity="1"><g transform="translate(175.216768, 219.49188)"><g><path d="M 6.300781 -8.511719 C 4.882812 -8.511719 3.941406 -7.964844 3.363281 -7.058594 L 3.363281 -8.246094 L 0.921875 -8.246094 L 0.921875 3.296875 L 3.363281 3.296875 L 3.363281 -1.203125 C 3.941406 -0.28125 4.882812 0.265625 6.300781 0.265625 C 9.003906 0.265625 10.109375 -1.78125 10.109375 -4.125 C 10.109375 -6.496094 9.003906 -8.511719 6.300781 -8.511719 Z M 5.558594 -1.648438 C 4.007812 -1.648438 3.363281 -2.441406 3.363281 -4.125 C 3.363281 -5.804688 4.007812 -6.597656 5.558594 -6.597656 C 7.109375 -6.597656 7.652344 -5.839844 7.652344 -4.125 C 7.652344 -2.425781 7.109375 -1.648438 5.558594 -1.648438 Z M 5.558594 -1.648438 "/></g></g></g><g fill="#545454" fill-opacity="1"><g transform="translate(185.917646, 219.49188)"><g><path d="M 0.839844 -9.335938 L 3.496094 -9.335938 L 3.496094 -10.96875 L 0.839844 -10.96875 Z M 0.957031 0 L 3.398438 0 L 3.398438 -8.246094 L 0.957031 -8.246094 Z M 0.957031 0 "/></g></g></g><g fill="#545454" fill-opacity="1"><g transform="translate(190.254052, 219.49188)"><g><path d="M 1.796875 0 L 4.238281 0 L 4.238281 -6.398438 L 6.285156 -6.398438 L 6.285156 -8.246094 L 3.890625 -8.246094 L 3.890625 -9.78125 L 6.730469 -9.78125 L 6.730469 -11.542969 L 4.617188 -11.542969 C 2.574219 -11.542969 1.796875 -10.589844 1.796875 -9.039062 L 1.796875 -8.277344 L 0.328125 -7.570312 L 0.328125 -6.398438 L 1.796875 -6.398438 Z M 1.796875 0 "/></g></g></g><g fill="#545454" fill-opacity="1"><g transform="translate(196.981255, 219.49188)"><g><path d="M 7.089844 -8.246094 L 5.328125 -3.101562 L 4.949219 -1.75 L 4.519531 -3.101562 L 2.703125 -8.246094 L 0.214844 -8.246094 L 3.035156 -0.148438 L 4.4375 -0.148438 L 3.890625 1.367188 L 0.710938 1.367188 L 0.710938 3.296875 L 2.769531 3.296875 C 5.144531 3.296875 5.855469 2.257812 6.53125 0.246094 L 9.417969 -8.246094 Z M 7.089844 -8.246094 "/></g></g></g><g fill="#545454" fill-opacity="1"><g transform="translate(206.560932, 219.49188)"><g><path d="M 6.480469 0.28125 C 10.355469 0.28125 11.875 -1.269531 12.105469 -4.4375 L 9.515625 -4.4375 C 9.382812 -2.722656 8.558594 -1.78125 6.449219 -1.78125 C 4.253906 -1.78125 3.363281 -3.050781 3.363281 -5.476562 C 3.363281 -7.933594 4.320312 -9.203125 6.53125 -9.203125 C 8.558594 -9.203125 9.335938 -8.277344 9.484375 -6.664062 L 12.054688 -6.664062 C 11.808594 -9.664062 10.273438 -11.246094 6.496094 -11.246094 C 2.375 -11.246094 0.742188 -8.511719 0.742188 -5.476562 C 0.742188 -2.390625 2.359375 0.28125 6.480469 0.28125 Z M 6.480469 0.28125 "/></g></g></g><g fill="#545454" fill-opacity="1"><g transform="translate(219.322844, 219.49188)"><g><path d="M 9.054688 -10.96875 L 6.613281 -3.777344 C 6.414062 -3.167969 6.25 -2.574219 6.085938 -1.960938 C 5.9375 -2.574219 5.757812 -3.167969 5.558594 -3.777344 L 3.132812 -10.96875 L 0.542969 -10.96875 L 4.222656 0 L 7.898438 0 L 11.578125 -10.96875 Z M 9.054688 -10.96875 "/></g></g></g><path stroke-linecap="butt" transform="matrix(0.75, 0, 0, 0.75, 127.499996, 226.391822)" fill="none" stroke-linejoin="miter" d="M 0.00000516333 1.998404 L 160.000016 1.998404 " stroke="#000000" stroke-width="4" stroke-opacity="1" stroke-miterlimit="4"/></svg>